<svg xmlns="http://www.w3.org/2000/svg" xmlns:xlink="http://www.w3.org/1999/xlink" width="2000" zoomAndPan="magnify" viewBox="0 0 1500 1499.999933" height="2000" preserveAspectRatio="xMidYMid meet" version="1.2"><defs><clipPath id="fbdc853b71"><rect x="0" width="1436" y="0" height="412"/></clipPath><clipPath id="be10326127"><rect x="0" width="345" y="0" height="476"/></clipPath><clipPath id="b3a3168965"><rect x="0" width="288" y="0" height="538"/></clipPath><clipPath id="edc4bf0e5d"><rect x="0" width="751" y="0" height="64"/></clipPath><clipPath id="e20018c265"><path d="M 525.910156 391.59375 L 962.410156 391.59375 L 962.410156 631.59375 L 525.910156 631.59375 Z M 525.910156 391.59375 "/></clipPath><clipPath id="334ba8ba7d"><path d="M 1 0.59375 L 437.410156 0.59375 L 437.410156 240.59375 L 1 240.59375 Z M 1 0.59375 "/></clipPath><clipPath id="4c57baa1dd"><rect x="0" width="438" y="0" height="241"/></clipPath></defs><g id="7e7c73b0b0"><g transform="matrix(1,0,0,1,64,835)"><g clip-path="url(#fbdc853b71)"><g style="fill:#6e2d4b;fill-opacity:1;"><g transform="translate(0.546031, 149.103164)"><path style="stroke:none" d="M 10.21875 0 L 10.21875 -2.046875 C 11.945312 -2.535156 13.367188 -3.367188 14.484375 -4.546875 C 15.597656 -5.722656 16.398438 -7.765625 16.890625 -10.671875 C 17.390625 -13.585938 17.640625 -17.894531 17.640625 -23.59375 L 17.640625 -106.421875 C 17.640625 -112.117188 17.390625 -116.421875 16.890625 -119.328125 C 16.398438 -122.242188 15.597656 -124.316406 14.484375 -125.546875 C 13.367188 -126.785156 11.945312 -127.59375 10.21875 -127.96875 L 10.21875 -130.015625 L 95.46875 -130.015625 L 97.328125 -111.625 L 95.65625 -111.25 C 92.925781 -117.195312 89.457031 -121.40625 85.25 -123.875 C 81.039062 -126.351562 74.726562 -127.59375 66.3125 -127.59375 L 28.046875 -127.59375 L 28.046875 -72.4375 L 57.953125 -72.25 C 64.390625 -72.25 69.3125 -72.679688 72.71875 -73.546875 C 76.125 -74.410156 78.535156 -75.675781 79.953125 -77.34375 C 81.378906 -79.019531 82.34375 -80.972656 82.84375 -83.203125 L 84.875 -83.203125 L 84.875 -58.5 L 82.84375 -58.5 C 82.34375 -60.851562 81.378906 -62.832031 79.953125 -64.4375 C 78.535156 -66.050781 76.125 -67.351562 72.71875 -68.34375 C 69.3125 -69.34375 64.390625 -69.84375 57.953125 -69.84375 L 28.046875 -70.015625 L 28.046875 -23.59375 C 28.046875 -17.894531 28.289062 -13.585938 28.78125 -10.671875 C 29.28125 -7.765625 30.085938 -5.722656 31.203125 -4.546875 C 32.316406 -3.367188 33.738281 -2.535156 35.46875 -2.046875 L 35.46875 0 Z M 10.21875 0 "/></g></g><g style="fill:#6e2d4b;fill-opacity:1;"><g transform="translate(115.330137, 149.103164)"><path style="stroke:none" d="M 10.21875 0 L 10.21875 -2.046875 C 11.945312 -2.535156 13.367188 -3.367188 14.484375 -4.546875 C 15.597656 -5.722656 16.398438 -7.765625 16.890625 -10.671875 C 17.390625 -13.585938 17.640625 -17.894531 17.640625 -23.59375 L 17.640625 -106.421875 C 17.640625 -112.117188 17.390625 -116.421875 16.890625 -119.328125 C 16.398438 -122.242188 15.597656 -124.316406 14.484375 -125.546875 C 13.367188 -126.785156 11.945312 -127.59375 10.21875 -127.96875 L 10.21875 -130.015625 L 35.46875 -130.015625 L 35.46875 -127.96875 C 33.738281 -127.59375 32.316406 -126.785156 31.203125 -125.546875 C 30.085938 -124.316406 29.28125 -122.242188 28.78125 -119.328125 C 28.289062 -116.421875 28.046875 -112.117188 28.046875 -106.421875 L 28.046875 -23.59375 C 28.046875 -17.894531 28.289062 -13.585938 28.78125 -10.671875 C 29.28125 -7.765625 30.085938 -5.722656 31.203125 -4.546875 C 32.316406 -3.367188 33.738281 -2.535156 35.46875 -2.046875 L 35.46875 0 Z M 10.21875 0 "/></g></g><g style="fill:#6e2d4b;fill-opacity:1;"><g transform="translate(172.3513, 149.103164)"><path style="stroke:none" d="M 108.46875 1.484375 L 20.796875 -116.453125 L 20.796875 -26.9375 C 20.796875 -20.488281 21.257812 -15.5625 22.1875 -12.15625 C 23.125 -8.757812 24.425781 -6.347656 26.09375 -4.921875 C 27.769531 -3.492188 29.722656 -2.535156 31.953125 -2.046875 L 31.953125 0 L 10.59375 0 L 10.59375 -2.046875 C 12.320312 -2.535156 13.742188 -3.367188 14.859375 -4.546875 C 15.972656 -5.722656 16.773438 -7.765625 17.265625 -10.671875 C 17.765625 -13.585938 18.015625 -17.894531 18.015625 -23.59375 L 18.015625 -106.421875 C 18.015625 -112.117188 17.671875 -116.421875 16.984375 -119.328125 C 16.304688 -122.242188 15.253906 -124.316406 13.828125 -125.546875 C 12.410156 -126.785156 10.585938 -127.59375 8.359375 -127.96875 L 8.359375 -130.015625 L 23.78125 -130.015625 L 108.09375 -16.90625 L 108.09375 -103.078125 C 108.09375 -109.515625 107.628906 -114.4375 106.703125 -117.84375 C 105.773438 -121.25 104.503906 -123.664062 102.890625 -125.09375 C 101.285156 -126.519531 99.304688 -127.476562 96.953125 -127.96875 L 96.953125 -130.015625 L 118.3125 -130.015625 L 118.3125 -127.96875 C 116.582031 -127.59375 115.160156 -126.785156 114.046875 -125.546875 C 112.929688 -124.316406 112.125 -122.242188 111.625 -119.328125 C 111.132812 -116.421875 110.890625 -112.117188 110.890625 -106.421875 L 110.890625 1.484375 Z M 108.46875 1.484375 "/></g></g><g style="fill:#6e2d4b;fill-opacity:1;"><g transform="translate(310.352028, 149.103164)"><path style="stroke:none" d="M 10.21875 0 L 10.21875 -2.046875 C 11.945312 -2.535156 13.367188 -3.367188 14.484375 -4.546875 C 15.597656 -5.722656 16.398438 -7.765625 16.890625 -10.671875 C 17.390625 -13.585938 17.640625 -17.894531 17.640625 -23.59375 L 17.640625 -106.421875 C 17.640625 -112.117188 17.390625 -116.421875 16.890625 -119.328125 C 16.398438 -122.242188 15.597656 -124.316406 14.484375 -125.546875 C 13.367188 -126.785156 11.945312 -127.59375 10.21875 -127.96875 L 10.21875 -130.015625 L 52.5625 -130.015625 C 64.695312 -130.015625 75.222656 -128.3125 84.140625 -124.90625 C 93.054688 -121.5 100.453125 -116.882812 106.328125 -111.0625 C 112.210938 -105.25 116.640625 -98.566406 119.609375 -91.015625 C 122.585938 -83.460938 124.078125 -75.535156 124.078125 -67.234375 C 124.078125 -57.828125 122.523438 -49.035156 119.421875 -40.859375 C 116.328125 -32.691406 111.835938 -25.539062 105.953125 -19.40625 C 100.078125 -13.28125 93.019531 -8.515625 84.78125 -5.109375 C 76.550781 -1.703125 67.296875 0 57.015625 0 Z M 28.046875 -16.15625 C 28.046875 -11.820312 28.785156 -8.476562 30.265625 -6.125 C 31.753906 -3.769531 35.039062 -2.59375 40.125 -2.59375 L 57.578125 -2.59375 C 75.285156 -2.59375 88.84375 -7.734375 98.25 -18.015625 C 107.664062 -28.296875 112.375 -42.84375 112.375 -61.65625 C 112.375 -70.695312 110.882812 -79.179688 107.90625 -87.109375 C 104.9375 -95.035156 100.601562 -102.03125 94.90625 -108.09375 C 89.207031 -114.164062 82.269531 -118.929688 74.09375 -122.390625 C 65.925781 -125.859375 56.644531 -127.59375 46.25 -127.59375 L 28.046875 -127.59375 Z M 28.046875 -16.15625 "/></g></g><g style="fill:#6e2d4b;fill-opacity:1;"><g transform="translate(455.045018, 149.103164)"><path style="stroke:none" d=""/></g></g><g style="fill:#6e2d4b;fill-opacity:1;"><g transform="translate(507.237134, 149.103164)"><path style="stroke:none" d="M 36.03125 0 L 36.03125 -2.046875 C 37.757812 -2.535156 39.179688 -3.367188 40.296875 -4.546875 C 41.410156 -5.722656 42.21875 -7.765625 42.71875 -10.671875 C 43.21875 -13.585938 43.46875 -17.894531 43.46875 -23.59375 L 43.28125 -57.578125 L 14.671875 -109.390625 C 11.953125 -114.347656 9.566406 -118.0625 7.515625 -120.53125 C 5.472656 -123.007812 3.707031 -124.773438 2.21875 -125.828125 C 0.738281 -126.878906 -0.617188 -127.59375 -1.859375 -127.96875 L -1.859375 -130.015625 L 21.734375 -130.015625 L 21.734375 -127.96875 C 19.992188 -127.59375 18.96875 -126.878906 18.65625 -125.828125 C 18.351562 -124.773438 18.789062 -123.007812 19.96875 -120.53125 C 21.144531 -118.0625 23.09375 -114.347656 25.8125 -109.390625 L 52.75 -61.484375 L 79.859375 -109.390625 C 83.078125 -114.960938 84.875 -119.296875 85.25 -122.390625 C 85.625 -125.492188 84.203125 -127.351562 80.984375 -127.96875 L 80.984375 -130.015625 L 101.21875 -130.015625 L 101.21875 -127.96875 C 99.738281 -127.59375 98.097656 -126.878906 96.296875 -125.828125 C 94.503906 -124.773438 92.554688 -123.007812 90.453125 -120.53125 C 88.347656 -118.0625 85.867188 -114.347656 83.015625 -109.390625 L 54.046875 -57.953125 L 54.046875 -23.59375 C 54.046875 -17.894531 54.289062 -13.585938 54.78125 -10.671875 C 55.28125 -7.765625 56.085938 -5.722656 57.203125 -4.546875 C 58.316406 -3.367188 59.742188 -2.535156 61.484375 -2.046875 L 61.484375 0 Z M 36.03125 0 "/></g></g><g style="fill:#6e2d4b;fill-opacity:1;"><g transform="translate(617.935116, 149.103164)"><path style="stroke:none" d="M 74.84375 1.859375 C 66.925781 1.859375 59.097656 0.53125 51.359375 -2.125 C 43.617188 -4.789062 36.554688 -8.878906 30.171875 -14.390625 C 23.796875 -19.898438 18.71875 -26.832031 14.9375 -35.1875 C 11.164062 -43.550781 9.28125 -53.429688 9.28125 -64.828125 C 9.28125 -77.953125 12.003906 -89.523438 17.453125 -99.546875 C 22.898438 -109.578125 30.546875 -117.410156 40.390625 -123.046875 C 50.234375 -128.679688 61.71875 -131.5 74.84375 -131.5 C 82.644531 -131.5 90.414062 -130.132812 98.15625 -127.40625 C 105.894531 -124.6875 112.953125 -120.570312 119.328125 -115.0625 C 125.710938 -109.550781 130.789062 -102.582031 134.5625 -94.15625 C 138.34375 -85.738281 140.234375 -75.835938 140.234375 -64.453125 C 140.234375 -52.804688 138.3125 -42.804688 134.46875 -34.453125 C 130.632812 -26.097656 125.554688 -19.222656 119.234375 -13.828125 C 112.921875 -8.441406 105.894531 -4.476562 98.15625 -1.9375 C 90.414062 0.59375 82.644531 1.859375 74.84375 1.859375 Z M 19.3125 -74.84375 C 19.3125 -65.4375 20.796875 -56.367188 23.765625 -47.640625 C 26.742188 -38.910156 30.957031 -31.078125 36.40625 -24.140625 C 41.851562 -17.210938 48.257812 -11.734375 55.625 -7.703125 C 62.988281 -3.679688 71.007812 -1.671875 79.6875 -1.671875 C 90.082031 -1.671875 99.085938 -3.898438 106.703125 -8.359375 C 114.316406 -12.816406 120.164062 -19.035156 124.25 -27.015625 C 128.34375 -35.003906 130.390625 -44.265625 130.390625 -54.796875 C 130.390625 -64.328125 128.867188 -73.457031 125.828125 -82.1875 C 122.796875 -90.914062 118.523438 -98.710938 113.015625 -105.578125 C 107.503906 -112.453125 101.035156 -117.898438 93.609375 -121.921875 C 86.179688 -125.953125 78.132812 -127.96875 69.46875 -127.96875 C 59.0625 -127.96875 50.113281 -125.675781 42.625 -121.09375 C 35.132812 -116.519531 29.375 -110.238281 25.34375 -102.25 C 21.320312 -94.257812 19.3125 -85.125 19.3125 -74.84375 Z M 19.3125 -74.84375 "/></g></g><g style="fill:#6e2d4b;fill-opacity:1;"><g transform="translate(778.780986, 149.103164)"><path style="stroke:none" d="M 65.375 1.859375 C 58.8125 1.859375 52.523438 1.023438 46.515625 -0.640625 C 40.515625 -2.316406 35.128906 -4.976562 30.359375 -8.625 C 25.597656 -12.28125 21.820312 -17.109375 19.03125 -23.109375 C 16.25 -29.117188 14.859375 -36.398438 14.859375 -44.953125 L 14.859375 -106.421875 C 14.859375 -112.117188 14.609375 -116.421875 14.109375 -119.328125 C 13.617188 -122.242188 12.816406 -124.316406 11.703125 -125.546875 C 10.585938 -126.785156 9.160156 -127.59375 7.421875 -127.96875 L 7.421875 -130.015625 L 32.6875 -130.015625 L 32.6875 -127.96875 C 30.957031 -127.59375 29.535156 -126.785156 28.421875 -125.546875 C 27.304688 -124.316406 26.5 -122.242188 26 -119.328125 C 25.507812 -116.421875 25.265625 -112.117188 25.265625 -106.421875 L 25.265625 -49.03125 C 25.265625 -37.269531 27.398438 -27.890625 31.671875 -20.890625 C 35.941406 -13.898438 41.453125 -8.882812 48.203125 -5.84375 C 54.953125 -2.8125 62.101562 -1.296875 69.65625 -1.296875 C 73.738281 -1.296875 78.039062 -2.007812 82.5625 -3.4375 C 87.082031 -4.863281 91.320312 -7.304688 95.28125 -10.765625 C 99.238281 -14.234375 102.457031 -18.96875 104.9375 -24.96875 C 107.414062 -30.976562 108.65625 -38.628906 108.65625 -47.921875 L 108.65625 -103.078125 C 108.65625 -109.515625 108.191406 -114.4375 107.265625 -117.84375 C 106.335938 -121.25 105.066406 -123.664062 103.453125 -125.09375 C 101.847656 -126.519531 99.867188 -127.476562 97.515625 -127.96875 L 97.515625 -130.015625 L 118.875 -130.015625 L 118.875 -127.96875 C 117.132812 -127.59375 115.707031 -126.785156 114.59375 -125.546875 C 113.476562 -124.316406 112.671875 -122.242188 112.171875 -119.328125 C 111.679688 -116.421875 111.4375 -112.117188 111.4375 -106.421875 L 111.4375 -48.65625 C 111.4375 -36.28125 109.300781 -26.375 105.03125 -18.9375 C 100.757812 -11.507812 95.125 -6.1875 88.125 -2.96875 C 81.132812 0.25 73.550781 1.859375 65.375 1.859375 Z M 65.375 1.859375 "/></g></g><g style="fill:#6e2d4b;fill-opacity:1;"><g transform="translate(914.552938, 149.103164)"><path style="stroke:none" d="M 104.9375 1.296875 C 100.476562 1.296875 97.039062 0.148438 94.625 -2.140625 C 92.21875 -4.429688 90.175781 -7.648438 88.5 -11.796875 C 86.832031 -15.941406 84.757812 -20.800781 82.28125 -26.375 C 79.675781 -32.320312 77.382812 -37.832031 75.40625 -42.90625 C 73.425781 -47.976562 71.132812 -52.34375 68.53125 -56 C 65.9375 -59.65625 62.472656 -62.503906 58.140625 -64.546875 C 53.804688 -66.585938 48.046875 -67.609375 40.859375 -67.609375 L 28.046875 -67.609375 L 28.046875 -23.59375 C 28.046875 -17.894531 28.289062 -13.585938 28.78125 -10.671875 C 29.28125 -7.765625 30.085938 -5.722656 31.203125 -4.546875 C 32.316406 -3.367188 33.738281 -2.535156 35.46875 -2.046875 L 35.46875 0 L 10.21875 0 L 10.21875 -2.046875 C 11.945312 -2.535156 13.367188 -3.367188 14.484375 -4.546875 C 15.597656 -5.722656 16.398438 -7.765625 16.890625 -10.671875 C 17.390625 -13.585938 17.640625 -17.894531 17.640625 -23.59375 L 17.640625 -106.421875 C 17.640625 -112.117188 17.390625 -116.421875 16.890625 -119.328125 C 16.398438 -122.242188 15.597656 -124.316406 14.484375 -125.546875 C 13.367188 -126.785156 11.945312 -127.59375 10.21875 -127.96875 L 10.21875 -130.015625 L 44.390625 -130.015625 C 61.722656 -130.015625 74.164062 -127.566406 81.71875 -122.671875 C 89.269531 -117.785156 93.046875 -110.820312 93.046875 -101.78125 C 93.046875 -92.863281 89.796875 -85.3125 83.296875 -79.125 C 76.796875 -72.9375 67.601562 -69.222656 55.71875 -67.984375 C 61.90625 -67.109375 66.914062 -65.585938 70.75 -63.421875 C 74.59375 -61.253906 77.691406 -58.5 80.046875 -55.15625 C 82.398438 -51.8125 84.441406 -47.972656 86.171875 -43.640625 C 87.910156 -39.304688 89.769531 -34.539062 91.75 -29.34375 C 95.71875 -19.5625 99.15625 -12.472656 102.0625 -8.078125 C 104.96875 -3.679688 107.910156 -1.484375 110.890625 -1.484375 C 111.503906 -1.484375 112.054688 -1.515625 112.546875 -1.578125 C 113.046875 -1.640625 113.546875 -1.734375 114.046875 -1.859375 L 114.046875 0 C 113.421875 0.25 112.269531 0.523438 110.59375 0.828125 C 108.925781 1.140625 107.039062 1.296875 104.9375 1.296875 Z M 28.046875 -70.203125 L 47.734375 -70.203125 C 58.503906 -70.203125 66.828125 -72.613281 72.703125 -77.4375 C 78.585938 -82.269531 81.53125 -89.023438 81.53125 -97.703125 C 81.53125 -106.859375 78.21875 -114.128906 71.59375 -119.515625 C 64.96875 -124.898438 53.546875 -127.59375 37.328125 -127.59375 C 35.847656 -127.59375 34.363281 -127.5625 32.875 -127.5 C 31.382812 -127.4375 29.773438 -127.347656 28.046875 -127.234375 Z M 28.046875 -70.203125 "/></g></g><g style="fill:#6e2d4b;fill-opacity:1;"><g transform="translate(1038.260525, 149.103164)"><path style="stroke:none" d=""/></g></g><g style="fill:#6e2d4b;fill-opacity:1;"><g transform="translate(945.185656, 280.694876)"><path style="stroke:none" d="M 203.421875 -47.671875 C 204.109375 -46.703125 204.347656 -45.695312 204.140625 -44.65625 C 203.929688 -43.613281 203.34375 -42.75 202.375 -42.0625 C 180.863281 -26.65625 161.222656 -12.078125 143.453125 1.671875 C 145.253906 7.359375 145.460938 13.601562 144.078125 20.40625 C 141.859375 32.195312 137.867188 43.191406 132.109375 53.390625 C 126.347656 63.597656 119.613281 72.898438 111.90625 81.296875 C 104.207031 89.703125 96.15625 96.921875 87.75 102.953125 C 79.351562 108.992188 71.335938 113.710938 63.703125 117.109375 C 56.078125 120.515625 49.488281 122.425781 43.9375 122.84375 C 43.101562 122.976562 42.335938 123.046875 41.640625 123.046875 C 37.335938 123.046875 34.28125 122.175781 32.46875 120.4375 C 30.664062 118.707031 29.488281 117.078125 28.9375 115.546875 C 25.75 106.804688 33.210938 92.40625 51.328125 72.34375 C 69.441406 52.289062 96.890625 27.898438 133.671875 -0.828125 C 129.085938 -9.015625 119.890625 -16.578125 106.078125 -23.515625 C 92.265625 -30.460938 73.976562 -38.515625 51.21875 -47.671875 C 48.582031 -48.785156 45.875 -49.894531 43.09375 -51 C 40.320312 -52.113281 37.476562 -53.296875 34.5625 -54.546875 C 24.570312 -58.710938 17.628906 -64.332031 13.734375 -71.40625 C 9.847656 -78.488281 9.363281 -86.609375 12.28125 -95.765625 C 14.5 -102.847656 18.382812 -110.066406 23.9375 -117.421875 C 29.488281 -124.785156 36.21875 -132.109375 44.125 -139.390625 C 52.039062 -146.679688 60.648438 -153.625 69.953125 -160.21875 C 79.253906 -166.8125 88.757812 -172.8125 98.46875 -178.21875 C 108.1875 -183.632812 117.695312 -188.210938 127 -191.953125 C 136.300781 -195.703125 144.875 -198.34375 152.71875 -199.875 C 160.5625 -201.40625 167.1875 -201.546875 172.59375 -200.296875 C 174.820312 -199.734375 177.285156 -198.6875 179.984375 -197.15625 C 182.691406 -195.632812 184.84375 -193.171875 186.4375 -189.765625 C 188.039062 -186.367188 188.492188 -181.6875 187.796875 -175.71875 C 187.515625 -174.613281 186.957031 -173.75 186.125 -173.125 C 185.300781 -172.5 184.332031 -172.253906 183.21875 -172.390625 C 182.101562 -172.523438 181.195312 -173.046875 180.5 -173.953125 C 179.8125 -174.859375 179.535156 -175.863281 179.671875 -176.96875 C 180.503906 -182.800781 179.878906 -186.6875 177.796875 -188.625 C 175.722656 -190.570312 173.4375 -191.820312 170.9375 -192.375 C 165.65625 -193.625 158.675781 -193.207031 150 -191.125 C 141.332031 -189.039062 131.65625 -185.535156 120.96875 -180.609375 C 110.28125 -175.679688 99.3125 -169.609375 88.0625 -162.390625 C 76.132812 -154.898438 65.414062 -147.09375 55.90625 -138.96875 C 46.394531 -130.851562 38.550781 -122.910156 32.375 -115.140625 C 26.195312 -107.367188 22.066406 -100.148438 19.984375 -93.484375 C 15.398438 -79.179688 21.300781 -68.632812 37.6875 -61.84375 C 40.601562 -60.726562 43.410156 -59.613281 46.109375 -58.5 C 48.816406 -57.394531 51.5625 -56.285156 54.34375 -55.171875 C 68.363281 -49.484375 81.097656 -44.101562 92.546875 -39.03125 C 103.992188 -33.96875 113.773438 -28.796875 121.890625 -23.515625 C 130.015625 -18.242188 136.09375 -12.347656 140.125 -5.828125 C 157.613281 -19.429688 176.835938 -33.660156 197.796875 -48.515625 C 198.765625 -49.203125 199.769531 -49.441406 200.8125 -49.234375 C 201.851562 -49.023438 202.722656 -48.503906 203.421875 -47.671875 Z M 136.375 18.734375 C 137.207031 14.566406 137.273438 10.679688 136.578125 7.078125 C 107.015625 30.253906 83.554688 50.660156 66.203125 68.296875 C 56.078125 78.703125 48.304688 87.960938 42.890625 96.078125 C 37.472656 104.203125 35.320312 109.789062 36.4375 112.84375 C 36.851562 113.957031 37.820312 114.617188 39.34375 114.828125 C 40.875 115.035156 42.195312 115.066406 43.3125 114.921875 C 47.882812 114.648438 53.640625 112.914062 60.578125 109.71875 C 67.523438 106.53125 74.882812 102.125 82.65625 96.5 C 90.425781 90.875 97.988281 84.175781 105.34375 76.40625 C 112.707031 68.632812 119.164062 59.890625 124.71875 50.171875 C 130.269531 40.460938 134.15625 29.984375 136.375 18.734375 Z M 136.375 18.734375 "/></g></g><g style="fill:#6e2d4b;fill-opacity:1;"><g transform="translate(1153.166848, 280.694876)"><path style="stroke:none" d="M 70.375 -46.421875 C 71.34375 -45.867188 71.894531 -45.035156 72.03125 -43.921875 C 72.175781 -42.816406 71.96875 -41.847656 71.40625 -41.015625 C 63.21875 -29.628906 55.722656 -20.222656 48.921875 -12.796875 C 42.117188 -5.378906 35.320312 0.757812 28.53125 5.625 C 23.382812 9.226562 18.316406 11.03125 13.328125 11.03125 C 9.441406 11.03125 6.039062 9.988281 3.125 7.90625 C 1.175781 6.519531 -0.726562 4.054688 -2.59375 0.515625 C -4.46875 -3.015625 -5.472656 -8.144531 -5.609375 -14.875 C -5.753906 -21.613281 -4.09375 -30.46875 -0.625 -41.4375 C -0.625 -41.4375 -0.625 -41.503906 -0.625 -41.640625 C 3.539062 -54.960938 8.429688 -65.128906 14.046875 -72.140625 C 19.671875 -79.148438 24.5 -82.722656 28.53125 -82.859375 C 31.71875 -83.003906 33.796875 -81.617188 34.765625 -78.703125 C 36.296875 -74.671875 34.492188 -68.941406 29.359375 -61.515625 C 24.222656 -54.097656 16.65625 -46.222656 6.65625 -37.890625 C 3.601562 -28.171875 2.144531 -20.570312 2.28125 -15.09375 C 2.425781 -9.613281 3.191406 -5.65625 4.578125 -3.21875 C 5.960938 -0.789062 7.070312 0.765625 7.90625 1.453125 C 12.070312 4.503906 17.414062 3.671875 23.9375 -1.046875 C 30.320312 -5.484375 36.773438 -11.273438 43.296875 -18.421875 C 49.828125 -25.566406 56.976562 -34.625 64.75 -45.59375 C 65.445312 -46.425781 66.347656 -46.945312 67.453125 -47.15625 C 68.566406 -47.363281 69.539062 -47.117188 70.375 -46.421875 Z M 27.0625 -74.125 C 25.539062 -73.144531 23.457031 -71.09375 20.8125 -67.96875 C 18.175781 -64.851562 15.472656 -60.3125 12.703125 -54.34375 C 17.703125 -59.195312 21.238281 -63.320312 23.3125 -66.71875 C 25.394531 -70.125 26.644531 -72.59375 27.0625 -74.125 Z M 27.0625 -74.125 "/></g></g><g style="fill:#6e2d4b;fill-opacity:1;"><g transform="translate(1226.450032, 280.694876)"><path style="stroke:none" d="M 87.234375 -46.21875 C 88.203125 -45.800781 88.859375 -45.070312 89.203125 -44.03125 C 89.554688 -42.988281 89.523438 -41.984375 89.109375 -41.015625 C 86.472656 -35.597656 83.59375 -30.179688 80.46875 -24.765625 C 77.34375 -19.359375 74.078125 -14.398438 70.671875 -9.890625 C 67.273438 -5.378906 63.769531 -1.769531 60.15625 0.9375 C 56.550781 3.644531 52.945312 5 49.34375 5 C 48.644531 5 47.878906 4.925781 47.046875 4.78125 C 37.753906 2.976562 31.992188 -9.507812 29.765625 -32.6875 C 27.410156 -29.5 24.671875 -25.925781 21.546875 -21.96875 C 18.421875 -18.007812 15.125 -14.085938 11.65625 -10.203125 C 11.101562 -9.648438 10.203125 -8.78125 8.953125 -7.59375 C 7.703125 -6.414062 6.242188 -5.476562 4.578125 -4.78125 C 2.910156 -4.09375 1.242188 -4.164062 -0.421875 -5 C -3.742188 -6.25 -5.335938 -9.859375 -5.203125 -15.828125 C -5.203125 -19.296875 -4.539062 -23.597656 -3.21875 -28.734375 C -1.90625 -33.867188 -0.0351562 -39.035156 2.390625 -44.234375 C 4.816406 -49.441406 7.660156 -54.054688 10.921875 -58.078125 C 14.191406 -62.109375 17.835938 -64.816406 21.859375 -66.203125 C 24.359375 -67.179688 27.410156 -67.359375 31.015625 -66.734375 C 34.628906 -66.109375 38.378906 -63.503906 42.265625 -58.921875 C 42.960938 -58.085938 43.273438 -57.113281 43.203125 -56 C 43.128906 -54.894531 42.675781 -53.992188 41.84375 -53.296875 C 41.007812 -52.609375 40.035156 -52.296875 38.921875 -52.359375 C 37.816406 -52.429688 36.921875 -52.882812 36.234375 -53.71875 C 32.898438 -57.601562 30.015625 -59.441406 27.578125 -59.234375 C 25.148438 -59.023438 23.101562 -58.296875 21.4375 -57.046875 C 18.382812 -54.828125 15.609375 -51.632812 13.109375 -47.46875 C 10.617188 -43.300781 8.539062 -38.925781 6.875 -34.34375 C 5.207031 -29.769531 4.023438 -25.503906 3.328125 -21.546875 C 2.640625 -17.585938 2.429688 -14.707031 2.703125 -12.90625 C 3.117188 -13.1875 3.566406 -13.535156 4.046875 -13.953125 C 4.535156 -14.367188 5.0625 -14.921875 5.625 -15.609375 C 9.789062 -20.191406 13.609375 -24.738281 17.078125 -29.25 C 20.546875 -33.757812 23.53125 -37.75 26.03125 -41.21875 C 26.71875 -42.195312 27.375 -43.132812 28 -44.03125 C 28.625 -44.9375 29.210938 -45.734375 29.765625 -46.421875 C 30.878906 -47.816406 32.335938 -48.234375 34.140625 -47.671875 C 35.953125 -47.253906 36.925781 -46.078125 37.0625 -44.140625 C 37.476562 -35.117188 38.207031 -27.863281 39.25 -22.375 C 40.289062 -16.894531 41.4375 -12.800781 42.6875 -10.09375 C 43.9375 -7.382812 45.113281 -5.546875 46.21875 -4.578125 C 47.332031 -3.609375 48.164062 -3.125 48.71875 -3.125 C 51.351562 -2.570312 55.585938 -5.28125 61.421875 -11.25 C 67.253906 -17.21875 74.054688 -28.25 81.828125 -44.34375 C 82.378906 -45.457031 83.175781 -46.1875 84.21875 -46.53125 C 85.257812 -46.875 86.265625 -46.769531 87.234375 -46.21875 Z M 87.234375 -46.21875 "/></g></g><g style="fill:#6e2d4b;fill-opacity:1;"><g transform="translate(1316.59651, 280.694876)"><path style="stroke:none" d="M 175.71875 -122.84375 C 176.414062 -122.007812 176.691406 -121.035156 176.546875 -119.921875 C 176.410156 -118.816406 175.859375 -117.914062 174.890625 -117.21875 C 173.222656 -116.101562 171.628906 -116.171875 170.109375 -117.421875 C 168.296875 -118.117188 164.160156 -118.601562 157.703125 -118.875 C 151.253906 -119.15625 143.171875 -119.332031 133.453125 -119.40625 C 123.742188 -119.476562 113.054688 -119.441406 101.390625 -119.296875 C 89.734375 -119.160156 77.757812 -118.988281 65.46875 -118.78125 C 53.1875 -118.570312 41.285156 -118.328125 29.765625 -118.046875 C 25.460938 -100.003906 20.953125 -80.398438 16.234375 -59.234375 C 11.515625 -38.066406 6.867188 -16.585938 2.296875 5.203125 C -3.671875 33.796875 -8.285156 57.253906 -11.546875 75.578125 C -14.816406 93.898438 -16.9375 107.15625 -17.90625 115.34375 C -17.625 115.34375 -17.347656 115.410156 -17.078125 115.546875 C -15.960938 115.828125 -15.195312 116.488281 -14.78125 117.53125 C -14.363281 118.570312 -14.363281 119.578125 -14.78125 120.546875 C -15.613281 122.910156 -16.550781 125.097656 -17.59375 127.109375 C -18.632812 129.117188 -20.054688 130.125 -21.859375 130.125 C -22.273438 130.125 -22.757812 130.054688 -23.3125 129.921875 C -25.257812 129.222656 -26.335938 127.726562 -26.546875 125.4375 C -26.753906 123.144531 -26.582031 119.988281 -26.03125 115.96875 C -25.46875 110.132812 -24.21875 101.738281 -22.28125 90.78125 C -20.613281 80.507812 -18.460938 68.5 -15.828125 54.75 C -13.191406 41.007812 -10.132812 25.953125 -6.65625 9.578125 C -2.082031 -12.628906 2.628906 -34.695312 7.484375 -56.625 C 12.347656 -78.5625 17 -98.96875 21.4375 -117.84375 C 14.78125 -117.707031 8.46875 -117.566406 2.5 -117.421875 C -3.46875 -117.285156 -8.878906 -117.148438 -13.734375 -117.015625 C -23.035156 -116.734375 -31.15625 -116.519531 -38.09375 -116.375 C -45.039062 -116.238281 -49.972656 -116.171875 -52.890625 -116.171875 C -53.992188 -116.171875 -54.925781 -116.550781 -55.6875 -117.3125 C -56.457031 -118.082031 -56.84375 -119.023438 -56.84375 -120.140625 C -56.84375 -121.242188 -56.457031 -122.175781 -55.6875 -122.9375 C -54.925781 -123.707031 -53.992188 -124.09375 -52.890625 -124.09375 C -49.972656 -124.09375 -45.078125 -124.195312 -38.203125 -124.40625 C -31.335938 -124.613281 -23.253906 -124.851562 -13.953125 -125.125 C -7.285156 -125.269531 -0.832031 -125.410156 5.40625 -125.546875 C 11.65625 -125.679688 17.695312 -125.820312 23.53125 -125.96875 C 25.613281 -134.84375 27.660156 -143.203125 29.671875 -151.046875 C 31.679688 -158.890625 33.585938 -166.070312 35.390625 -172.59375 C 35.671875 -173.707031 36.296875 -174.539062 37.265625 -175.09375 C 38.234375 -175.65625 39.207031 -175.796875 40.1875 -175.515625 C 41.289062 -175.234375 42.117188 -174.609375 42.671875 -173.640625 C 43.234375 -172.671875 43.375 -171.628906 43.09375 -170.515625 C 39.757812 -158.160156 35.941406 -143.378906 31.640625 -126.171875 C 53.296875 -126.585938 71.828125 -126.898438 87.234375 -127.109375 C 102.640625 -127.316406 115.546875 -127.421875 125.953125 -127.421875 C 136.367188 -127.421875 144.800781 -127.28125 151.25 -127 C 157.707031 -126.726562 162.601562 -126.414062 165.9375 -126.0625 C 169.269531 -125.71875 171.628906 -125.265625 173.015625 -124.703125 C 174.398438 -124.148438 175.300781 -123.53125 175.71875 -122.84375 Z M 175.71875 -122.84375 "/></g></g></g></g><g transform="matrix(1,0,0,1,454,143)"><g clip-path="url(#be10326127)"><g style="fill:#6e2d4b;fill-opacity:1;"><g transform="translate(6.800225, 342.028719)"><path style="stroke:none" d="M 42.09375 -259.578125 C 57.414062 -265.941406 72.148438 -269.125 86.296875 -269.125 C 98.078125 -269.125 110.21875 -264.757812 122.71875 -256.03125 C 129.550781 -251.320312 137.210938 -242.128906 145.703125 -228.453125 C 151.359375 -219.023438 158.550781 -201.929688 167.28125 -177.171875 L 210.421875 -54.8125 C 220.328125 -27.46875 230.40625 -5.722656 240.65625 10.421875 C 250.914062 26.578125 260.285156 38.722656 268.765625 46.859375 C 277.253906 54.992188 286.097656 60.707031 295.296875 64 C 304.492188 67.300781 312.097656 68.953125 318.109375 68.953125 C 324.117188 68.953125 329.484375 68.484375 334.203125 67.546875 L 334.546875 71.078125 C 323.234375 74.847656 312.15625 76.734375 301.3125 76.734375 C 290.46875 76.734375 279.617188 73.960938 268.765625 68.421875 C 257.921875 62.890625 247.785156 55.171875 238.359375 45.265625 C 218.085938 24.753906 200.878906 -6.484375 186.734375 -48.453125 L 172.9375 -88.765625 L 76.03125 -88.765625 L 51.640625 -25.8125 C 50.460938 -22.988281 49.875 -20.160156 49.875 -17.328125 C 49.875 -14.492188 51.109375 -11.484375 53.578125 -8.296875 C 56.054688 -5.117188 59.890625 -3.53125 65.078125 -3.53125 L 67.90625 -3.53125 L 67.90625 0 L -3.171875 0 L -3.171875 -3.53125 L 0 -3.53125 C 5.664062 -3.53125 11.207031 -5.238281 16.625 -8.65625 C 22.050781 -12.082031 26.53125 -17.210938 30.0625 -24.046875 L 117.765625 -234.109375 C 105.035156 -252.265625 89.238281 -261.34375 70.375 -261.34375 C 61.894531 -261.34375 52.820312 -259.570312 43.15625 -256.03125 Z M 79.921875 -99.375 L 169.40625 -99.375 L 141.46875 -181.765625 C 136.039062 -197.566406 131.085938 -209.945312 126.609375 -218.90625 Z M 79.921875 -99.375 "/></g></g></g></g><g transform="matrix(1,0,0,1,666,225)"><g clip-path="url(#b3a3168965)"><g style="fill:#6e2d4b;fill-opacity:1;"><g transform="translate(40.061759, 387.039656)"><path style="stroke:none" d="M -23.109375 -199.625 C -31.335938 -209.457031 -35.453125 -219.21875 -35.453125 -228.90625 C -35.453125 -238.601562 -33.191406 -246.972656 -28.671875 -254.015625 C -24.160156 -261.054688 -16.859375 -267.03125 -6.765625 -271.9375 C 3.328125 -276.851562 14.75 -279.3125 27.5 -279.3125 L 190.859375 -279.3125 C 199.097656 -279.3125 208.195312 -280.109375 218.15625 -281.703125 C 228.125 -283.296875 235.097656 -284.890625 239.078125 -286.484375 L 239.078125 -236.28125 L 235.09375 -236.6875 L 235.09375 -243.453125 C 235.09375 -249.828125 232.832031 -255.335938 228.3125 -259.984375 C 223.800781 -264.640625 218.492188 -267.097656 212.390625 -267.359375 L 136.671875 -267.359375 L 136.671875 -28.6875 C 136.941406 -19.125 141.191406 -11.953125 149.421875 -7.171875 C 153.410156 -5.046875 157.660156 -3.984375 162.171875 -3.984375 L 167.359375 -3.984375 L 167.359375 0 L 80.09375 0 L 80.09375 -3.984375 L 85.28125 -3.984375 C 92.1875 -3.984375 98.09375 -6.375 103 -11.15625 C 107.914062 -15.9375 110.507812 -21.648438 110.78125 -28.296875 L 110.78125 -267.359375 L 27.5 -267.359375 C 6.25 -267.359375 -9.15625 -260.585938 -18.71875 -247.046875 C -23.769531 -240.140625 -26.296875 -232.898438 -26.296875 -225.328125 C -26.296875 -217.753906 -24.171875 -209.851562 -19.921875 -201.625 Z M -23.109375 -199.625 "/></g></g></g></g><g transform="matrix(1,0,0,1,382,676)"><g clip-path="url(#edc4bf0e5d)"><g style="fill:#6e2d4b;fill-opacity:1;"><g transform="translate(3.189869, 49.83416)"><path style="stroke:none" d="M -1.3125 0 L -1.3125 -0.875 C -0.351562 -1.207031 0.546875 -1.847656 1.390625 -2.796875 C 2.242188 -3.753906 3.085938 -5.273438 3.921875 -7.359375 L 15.578125 -36.265625 C 16.035156 -37.429688 15.992188 -38.550781 15.453125 -39.625 L 14.640625 -41.375 L 20.75 -44.125 L 36.203125 -7.296875 C 37.078125 -5.253906 37.914062 -3.753906 38.71875 -2.796875 C 39.53125 -1.847656 40.289062 -1.207031 41 -0.875 L 41 0 L 29.65625 0 L 29.65625 -0.875 C 30.695312 -1.207031 31.082031 -1.847656 30.8125 -2.796875 C 30.539062 -3.753906 29.96875 -5.253906 29.09375 -7.296875 L 25.359375 -16.265625 L 8.71875 -16.265625 L 5.109375 -7.359375 C 4.273438 -5.273438 3.941406 -3.734375 4.109375 -2.734375 C 4.273438 -1.742188 4.878906 -1.125 5.921875 -0.875 L 5.921875 0 Z M 9.09375 -17.265625 L 24.921875 -17.265625 L 16.890625 -36.515625 Z M 9.09375 -17.265625 "/></g></g><g style="fill:#6e2d4b;fill-opacity:1;"><g transform="translate(55.654683, 49.83416)"><path style="stroke:none" d="M 11.46875 0 L 11.46875 -0.875 C 12.5 -1.207031 13.171875 -1.898438 13.484375 -2.953125 C 13.796875 -4.015625 13.953125 -5.664062 13.953125 -7.90625 L 13.890625 -20 L 4.671875 -36.703125 C 3.628906 -38.648438 2.617188 -40.0625 1.640625 -40.9375 C 0.671875 -41.8125 -0.164062 -42.414062 -0.875 -42.75 L -0.875 -43.625 L 10.78125 -43.625 L 10.78125 -42.75 C 9.738281 -42.414062 9.4375 -41.8125 9.875 -40.9375 C 10.3125 -40.0625 11.070312 -38.648438 12.15625 -36.703125 L 20.375 -21.875 L 28.78125 -36.703125 C 29.863281 -38.648438 30.34375 -40.082031 30.21875 -41 C 30.09375 -41.914062 29.390625 -42.5 28.109375 -42.75 L 28.109375 -43.625 L 36.140625 -43.625 L 36.140625 -42.75 C 35.222656 -42.414062 34.242188 -41.8125 33.203125 -40.9375 C 32.171875 -40.0625 31.113281 -38.648438 30.03125 -36.703125 L 20.625 -19.9375 L 20.625 -7.90625 C 20.625 -5.664062 20.78125 -4.015625 21.09375 -2.953125 C 21.40625 -1.898438 22.082031 -1.207031 23.125 -0.875 L 23.125 0 Z M 11.46875 0 "/></g></g><g style="fill:#6e2d4b;fill-opacity:1;"><g transform="translate(103.758368, 49.83416)"><path style="stroke:none" d="M 25.671875 0.625 C 23.015625 0.625 20.375 0.175781 17.75 -0.71875 C 15.132812 -1.613281 12.738281 -2.984375 10.5625 -4.828125 C 8.382812 -6.679688 6.640625 -9.03125 5.328125 -11.875 C 4.015625 -14.71875 3.359375 -18.09375 3.359375 -22 C 3.359375 -25.070312 3.898438 -27.945312 4.984375 -30.625 C 6.066406 -33.300781 7.59375 -35.644531 9.5625 -37.65625 C 11.539062 -39.675781 13.898438 -41.257812 16.640625 -42.40625 C 19.378906 -43.550781 22.390625 -44.125 25.671875 -44.125 C 28.285156 -44.125 30.910156 -43.664062 33.546875 -42.75 C 36.191406 -41.832031 38.59375 -40.445312 40.75 -38.59375 C 42.914062 -36.75 44.648438 -34.414062 45.953125 -31.59375 C 47.265625 -28.769531 47.921875 -25.445312 47.921875 -21.625 C 47.921875 -17.84375 47.265625 -14.550781 45.953125 -11.75 C 44.648438 -8.945312 42.90625 -6.628906 40.71875 -4.796875 C 38.539062 -2.972656 36.140625 -1.613281 33.515625 -0.71875 C 30.898438 0.175781 28.285156 0.625 25.671875 0.625 Z M 9.84375 -25.796875 C 10.050781 -22.679688 10.679688 -19.660156 11.734375 -16.734375 C 12.796875 -13.804688 14.175781 -11.1875 15.875 -8.875 C 17.582031 -6.570312 19.566406 -4.734375 21.828125 -3.359375 C 24.097656 -1.992188 26.5625 -1.3125 29.21875 -1.3125 C 32.414062 -1.3125 34.945312 -2.023438 36.8125 -3.453125 C 38.6875 -4.890625 40.007812 -6.769531 40.78125 -9.09375 C 41.550781 -11.425781 41.832031 -13.960938 41.625 -16.703125 C 41.375 -20.023438 40.75 -23.222656 39.75 -26.296875 C 38.757812 -29.367188 37.421875 -32.128906 35.734375 -34.578125 C 34.054688 -37.035156 32.09375 -38.96875 29.84375 -40.375 C 27.601562 -41.789062 25.132812 -42.5 22.4375 -42.5 C 19.601562 -42.5 17.210938 -41.8125 15.265625 -40.4375 C 13.316406 -39.070312 11.875 -37.128906 10.9375 -34.609375 C 10 -32.097656 9.632812 -29.160156 9.84375 -25.796875 Z M 9.84375 -25.796875 "/></g></g><g style="fill:#6e2d4b;fill-opacity:1;"><g transform="translate(171.613153, 49.83416)"><path style="stroke:none" d="M 2.609375 0 L 2.609375 -0.875 C 3.648438 -1.207031 4.328125 -1.898438 4.640625 -2.953125 C 4.953125 -4.015625 5.109375 -5.664062 5.109375 -7.90625 L 5.109375 -31.96875 C 5.109375 -34.5 4.953125 -36.488281 4.640625 -37.9375 C 4.328125 -39.394531 3.859375 -40.476562 3.234375 -41.1875 C 2.617188 -41.894531 1.832031 -42.414062 0.875 -42.75 L 0.875 -43.625 L 10.21875 -43.625 L 25.609375 -18.078125 L 40.25 -43.625 L 49.109375 -43.625 L 49.109375 -42.75 C 48.148438 -42.414062 47.359375 -41.894531 46.734375 -41.1875 C 46.109375 -40.476562 45.640625 -39.394531 45.328125 -37.9375 C 45.015625 -36.488281 44.859375 -34.5 44.859375 -31.96875 L 44.859375 -7.90625 C 44.859375 -5.664062 45.015625 -4.015625 45.328125 -2.953125 C 45.640625 -1.898438 46.316406 -1.207031 47.359375 -0.875 L 47.359375 0 L 35.765625 0 L 35.765625 -0.875 C 36.804688 -1.207031 37.484375 -1.898438 37.796875 -2.953125 C 38.109375 -4.015625 38.265625 -5.664062 38.265625 -7.90625 L 38.265625 -38.078125 L 23.3125 -11.84375 L 21.875 -11.84375 L 6.234375 -37.515625 L 6.234375 -11.65625 C 6.234375 -9.113281 6.398438 -7.113281 6.734375 -5.65625 C 7.066406 -4.207031 7.582031 -3.128906 8.28125 -2.421875 C 8.988281 -1.722656 9.882812 -1.207031 10.96875 -0.875 L 10.96875 0 Z M 2.609375 0 "/></g></g><g style="fill:#6e2d4b;fill-opacity:1;"><g transform="translate(240.402496, 49.83416)"><path style="stroke:none" d="M 2.921875 0 L 2.921875 -0.875 C 3.960938 -1.207031 4.640625 -1.898438 4.953125 -2.953125 C 5.265625 -4.015625 5.421875 -5.664062 5.421875 -7.90625 L 5.421875 -35.703125 C 5.421875 -37.941406 5.265625 -39.59375 4.953125 -40.65625 C 4.640625 -41.71875 3.960938 -42.414062 2.921875 -42.75 L 2.921875 -43.625 L 14.515625 -43.625 L 14.515625 -42.75 C 13.484375 -42.414062 12.8125 -41.71875 12.5 -40.65625 C 12.1875 -39.59375 12.03125 -37.941406 12.03125 -35.703125 L 12.03125 -7.90625 C 12.03125 -5.664062 12.1875 -4.015625 12.5 -2.953125 C 12.8125 -1.898438 13.484375 -1.207031 14.515625 -0.875 L 14.515625 0 Z M 2.921875 0 "/></g></g><g style="fill:#6e2d4b;fill-opacity:1;"><g transform="translate(274.613123, 49.83416)"><path style="stroke:none" d="M 2.921875 0 L 2.921875 -0.875 C 3.960938 -1.207031 4.640625 -1.898438 4.953125 -2.953125 C 5.265625 -4.015625 5.421875 -5.664062 5.421875 -7.90625 L 5.421875 -35.703125 C 5.421875 -37.941406 5.265625 -39.59375 4.953125 -40.65625 C 4.640625 -41.71875 3.960938 -42.414062 2.921875 -42.75 L 2.921875 -43.625 L 18.5 -43.625 C 22.988281 -43.625 26.757812 -42.976562 29.8125 -41.6875 C 32.863281 -40.394531 35.300781 -38.703125 37.125 -36.609375 C 38.957031 -34.515625 40.289062 -32.238281 41.125 -29.78125 C 41.957031 -27.332031 42.375 -24.96875 42.375 -22.6875 C 42.414062 -18.195312 41.507812 -14.25 39.65625 -10.84375 C 37.8125 -7.4375 35.195312 -4.773438 31.8125 -2.859375 C 28.425781 -0.953125 24.445312 0 19.875 0 Z M 12.03125 -5.546875 C 12.03125 -4.085938 12.273438 -2.960938 12.765625 -2.171875 C 13.265625 -1.390625 14.367188 -1 16.078125 -1 L 19.4375 -1 C 24.46875 -1 28.320312 -2.441406 31 -5.328125 C 33.675781 -8.210938 35.015625 -12.976562 35.015625 -19.625 C 35.015625 -23.90625 34.265625 -27.78125 32.765625 -31.25 C 31.273438 -34.71875 29.023438 -37.476562 26.015625 -39.53125 C 23.003906 -41.59375 19.171875 -42.625 14.515625 -42.625 L 12.03125 -42.625 Z M 12.03125 -5.546875 "/></g></g><g style="fill:#6e2d4b;fill-opacity:1;"><g transform="translate(336.922854, 49.83416)"><path style="stroke:none" d="M 2.921875 0 L 2.921875 -0.875 C 3.960938 -1.207031 4.640625 -1.898438 4.953125 -2.953125 C 5.265625 -4.015625 5.421875 -5.664062 5.421875 -7.90625 L 5.421875 -35.703125 C 5.421875 -37.941406 5.265625 -39.59375 4.953125 -40.65625 C 4.640625 -41.71875 3.960938 -42.414062 2.921875 -42.75 L 2.921875 -43.625 L 32.84375 -43.625 L 33.53125 -34.828125 L 32.71875 -34.640625 C 31.46875 -37.710938 29.789062 -39.8125 27.6875 -40.9375 C 25.59375 -42.0625 22.800781 -42.625 19.3125 -42.625 L 12.03125 -42.625 L 12.03125 -23.921875 L 18.015625 -23.921875 C 20.546875 -23.921875 22.535156 -24.085938 23.984375 -24.421875 C 25.441406 -24.753906 26.523438 -25.273438 27.234375 -25.984375 C 27.941406 -26.691406 28.457031 -27.582031 28.78125 -28.65625 L 29.65625 -28.65625 L 29.65625 -18.1875 L 28.78125 -18.1875 C 28.457031 -19.269531 27.941406 -20.164062 27.234375 -20.875 C 26.523438 -21.582031 25.441406 -22.101562 23.984375 -22.4375 C 22.535156 -22.769531 20.546875 -22.9375 18.015625 -22.9375 L 12.03125 -22.9375 L 12.03125 -4.109375 C 12.03125 -2.035156 13.066406 -1 15.140625 -1 L 21.125 -1 C 24.28125 -1 26.9375 -1.578125 29.09375 -2.734375 C 31.257812 -3.898438 32.921875 -6.0625 34.078125 -9.21875 L 34.890625 -9.09375 L 34.453125 0 Z M 2.921875 0 "/></g></g><g style="fill:#6e2d4b;fill-opacity:1;"><g transform="translate(390.759225, 49.83416)"><path style="stroke:none" d=""/></g></g><g style="fill:#6e2d4b;fill-opacity:1;"><g transform="translate(419.985542, 49.83416)"><path style="stroke:none" d="M 39.75 0.4375 C 38.09375 0.4375 36.097656 -0.316406 33.765625 -1.828125 C 31.441406 -3.347656 29.054688 -5.296875 26.609375 -7.671875 C 25.273438 -5.253906 23.554688 -3.265625 21.453125 -1.703125 C 19.359375 -0.148438 16.960938 0.625 14.265625 0.625 C 11.566406 0.625 9.289062 -0.015625 7.4375 -1.296875 C 5.59375 -2.585938 4.203125 -4.195312 3.265625 -6.125 C 2.335938 -8.0625 1.875 -9.96875 1.875 -11.84375 C 1.875 -14.75 2.878906 -17.257812 4.890625 -19.375 C 6.898438 -21.5 9.609375 -23.203125 13.015625 -24.484375 C 12.109375 -26.066406 11.394531 -27.613281 10.875 -29.125 C 10.351562 -30.644531 10.09375 -32.113281 10.09375 -33.53125 C 10.09375 -34.476562 10.320312 -35.546875 10.78125 -36.734375 C 11.238281 -37.921875 11.984375 -39.070312 13.015625 -40.1875 C 14.054688 -41.3125 15.457031 -42.238281 17.21875 -42.96875 C 18.988281 -43.695312 21.203125 -44.0625 23.859375 -44.0625 C 25.066406 -44.0625 26.550781 -43.925781 28.3125 -43.65625 C 30.082031 -43.382812 31.65625 -42.851562 33.03125 -42.0625 L 33.71875 -34.140625 L 33.03125 -34.015625 C 31.945312 -36.597656 30.769531 -38.507812 29.5 -39.75 C 28.238281 -41 26.992188 -41.832031 25.765625 -42.25 C 24.535156 -42.664062 23.382812 -42.875 22.3125 -42.875 C 20.601562 -42.875 19.25 -42.519531 18.25 -41.8125 C 17.257812 -41.101562 16.566406 -40.269531 16.171875 -39.3125 C 15.773438 -38.363281 15.578125 -37.515625 15.578125 -36.765625 C 15.578125 -35.097656 16.050781 -33.257812 17 -31.25 C 17.957031 -29.238281 19.226562 -27.140625 20.8125 -24.953125 C 22.394531 -22.773438 24.140625 -20.5625 26.046875 -18.3125 C 27.828125 -16.28125 29.648438 -14.335938 31.515625 -12.484375 C 33.390625 -10.640625 35.207031 -9 36.96875 -7.5625 C 38.738281 -6.132812 40.34375 -5.003906 41.78125 -4.171875 C 43.21875 -3.335938 44.367188 -2.921875 45.234375 -2.921875 C 46.316406 -2.921875 47.109375 -3.722656 47.609375 -5.328125 C 48.109375 -6.929688 48.359375 -9.1875 48.359375 -12.09375 C 48.359375 -13.039062 48.273438 -14.097656 48.109375 -15.265625 C 47.941406 -16.429688 47.691406 -17.539062 47.359375 -18.59375 C 47.023438 -19.65625 46.640625 -20.53125 46.203125 -21.21875 C 45.765625 -21.90625 45.273438 -22.25 44.734375 -22.25 L 30.78125 -22.25 L 31.03125 -23.25 L 54.09375 -23.25 L 53.84375 -22.25 L 46.609375 -22.25 C 48.441406 -21.457031 49.945312 -20.226562 51.125 -18.5625 C 52.3125 -16.90625 52.90625 -15.078125 52.90625 -13.078125 C 52.90625 -11.753906 52.53125 -10.3125 51.78125 -8.75 C 51.03125 -7.195312 50.03125 -5.722656 48.78125 -4.328125 C 47.539062 -2.941406 46.140625 -1.800781 44.578125 -0.90625 C 43.023438 -0.0078125 41.414062 0.4375 39.75 0.4375 Z M 7.296875 -14.453125 C 7.296875 -12.710938 7.6875 -10.976562 8.46875 -9.25 C 9.257812 -7.53125 10.410156 -6.109375 11.921875 -4.984375 C 13.441406 -3.859375 15.285156 -3.296875 17.453125 -3.296875 C 19.398438 -3.296875 21.097656 -3.816406 22.546875 -4.859375 C 24.003906 -5.898438 25.128906 -7.0625 25.921875 -8.34375 C 25.128906 -9.175781 24.328125 -10.03125 23.515625 -10.90625 C 22.710938 -11.78125 21.914062 -12.671875 21.125 -13.578125 C 19.707031 -15.285156 18.332031 -16.988281 17 -18.6875 C 15.675781 -20.394531 14.492188 -22.078125 13.453125 -23.734375 C 11.335938 -22.828125 9.78125 -21.582031 8.78125 -20 C 7.789062 -18.425781 7.296875 -16.578125 7.296875 -14.453125 Z M 7.296875 -14.453125 "/></g></g><g style="fill:#6e2d4b;fill-opacity:1;"><g transform="translate(490.332502, 49.83416)"><path style="stroke:none" d=""/></g></g><g style="fill:#6e2d4b;fill-opacity:1;"><g transform="translate(519.558779, 49.83416)"><path style="stroke:none" d="M 11.71875 0 L 11.71875 -0.875 C 12.75 -1.207031 13.421875 -1.898438 13.734375 -2.953125 C 14.046875 -4.015625 14.203125 -5.664062 14.203125 -7.90625 L 14.203125 -42.5 L 12.28125 -42.5 C 9.488281 -42.5 7.300781 -42.03125 5.71875 -41.09375 C 4.144531 -40.15625 2.78125 -38.441406 1.625 -35.953125 L 0.875 -36.078125 L 1.25 -43.625 L 33.71875 -43.625 L 34.078125 -36.078125 L 33.34375 -35.953125 C 32.175781 -38.441406 30.800781 -40.15625 29.21875 -41.09375 C 27.644531 -42.03125 25.46875 -42.5 22.6875 -42.5 L 20.875 -42.5 L 20.875 -7.90625 C 20.875 -5.664062 21.03125 -4.015625 21.34375 -2.953125 C 21.65625 -1.898438 22.332031 -1.207031 23.375 -0.875 L 23.375 0 Z M 11.71875 0 "/></g></g><g style="fill:#6e2d4b;fill-opacity:1;"><g transform="translate(568.721894, 49.83416)"><path style="stroke:none" d="M 25.671875 0.625 C 23.015625 0.625 20.375 0.175781 17.75 -0.71875 C 15.132812 -1.613281 12.738281 -2.984375 10.5625 -4.828125 C 8.382812 -6.679688 6.640625 -9.03125 5.328125 -11.875 C 4.015625 -14.71875 3.359375 -18.09375 3.359375 -22 C 3.359375 -25.070312 3.898438 -27.945312 4.984375 -30.625 C 6.066406 -33.300781 7.59375 -35.644531 9.5625 -37.65625 C 11.539062 -39.675781 13.898438 -41.257812 16.640625 -42.40625 C 19.378906 -43.550781 22.390625 -44.125 25.671875 -44.125 C 28.285156 -44.125 30.910156 -43.664062 33.546875 -42.75 C 36.191406 -41.832031 38.59375 -40.445312 40.75 -38.59375 C 42.914062 -36.75 44.648438 -34.414062 45.953125 -31.59375 C 47.265625 -28.769531 47.921875 -25.445312 47.921875 -21.625 C 47.921875 -17.84375 47.265625 -14.550781 45.953125 -11.75 C 44.648438 -8.945312 42.90625 -6.628906 40.71875 -4.796875 C 38.539062 -2.972656 36.140625 -1.613281 33.515625 -0.71875 C 30.898438 0.175781 28.285156 0.625 25.671875 0.625 Z M 9.84375 -25.796875 C 10.050781 -22.679688 10.679688 -19.660156 11.734375 -16.734375 C 12.796875 -13.804688 14.175781 -11.1875 15.875 -8.875 C 17.582031 -6.570312 19.566406 -4.734375 21.828125 -3.359375 C 24.097656 -1.992188 26.5625 -1.3125 29.21875 -1.3125 C 32.414062 -1.3125 34.945312 -2.023438 36.8125 -3.453125 C 38.6875 -4.890625 40.007812 -6.769531 40.78125 -9.09375 C 41.550781 -11.425781 41.832031 -13.960938 41.625 -16.703125 C 41.375 -20.023438 40.75 -23.222656 39.75 -26.296875 C 38.757812 -29.367188 37.421875 -32.128906 35.734375 -34.578125 C 34.054688 -37.035156 32.09375 -38.96875 29.84375 -40.375 C 27.601562 -41.789062 25.132812 -42.5 22.4375 -42.5 C 19.601562 -42.5 17.210938 -41.8125 15.265625 -40.4375 C 13.316406 -39.070312 11.875 -37.128906 10.9375 -34.609375 C 10 -32.097656 9.632812 -29.160156 9.84375 -25.796875 Z M 9.84375 -25.796875 "/></g></g><g style="fill:#6e2d4b;fill-opacity:1;"><g transform="translate(636.57666, 49.83416)"><path style="stroke:none" d="M 2.921875 0 L 2.921875 -0.875 C 3.960938 -1.207031 4.640625 -1.898438 4.953125 -2.953125 C 5.265625 -4.015625 5.421875 -5.664062 5.421875 -7.90625 L 5.421875 -35.703125 C 5.421875 -37.941406 5.265625 -39.59375 4.953125 -40.65625 C 4.640625 -41.71875 3.960938 -42.414062 2.921875 -42.75 L 2.921875 -43.625 L 18.3125 -43.625 C 23.425781 -43.625 27.03125 -42.882812 29.125 -41.40625 C 31.226562 -39.925781 32.28125 -37.921875 32.28125 -35.390625 C 32.28125 -33.273438 31.507812 -31.34375 29.96875 -29.59375 C 28.4375 -27.851562 25.695312 -26.628906 21.75 -25.921875 C 26.894531 -25.753906 30.765625 -24.609375 33.359375 -22.484375 C 35.960938 -20.367188 37.285156 -17.753906 37.328125 -14.640625 C 37.367188 -12.816406 37.015625 -11.03125 36.265625 -9.28125 C 35.515625 -7.539062 34.316406 -5.972656 32.671875 -4.578125 C 31.035156 -3.191406 28.878906 -2.082031 26.203125 -1.25 C 23.523438 -0.414062 20.273438 0 16.453125 0 Z M 12.03125 -6.421875 C 12.03125 -4.171875 12.234375 -2.703125 12.640625 -2.015625 C 13.054688 -1.335938 13.929688 -1 15.265625 -1 L 17.015625 -1 C 21.492188 -1 24.757812 -2.066406 26.8125 -4.203125 C 28.875 -6.347656 29.90625 -9.0625 29.90625 -12.34375 C 29.90625 -16.082031 28.820312 -19.144531 26.65625 -21.53125 C 24.5 -23.914062 21.097656 -25.109375 16.453125 -25.109375 L 12.03125 -25.109375 Z M 12.03125 -26.109375 L 17.578125 -26.109375 C 19.859375 -26.109375 21.640625 -26.875 22.921875 -28.40625 C 24.210938 -29.945312 24.859375 -31.796875 24.859375 -33.953125 C 24.859375 -36.703125 23.941406 -38.832031 22.109375 -40.34375 C 20.285156 -41.863281 17.773438 -42.625 14.578125 -42.625 L 12.03125 -42.625 Z M 12.03125 -26.109375 "/></g></g><g style="fill:#6e2d4b;fill-opacity:1;"><g transform="translate(692.718279, 49.83416)"><path style="stroke:none" d="M -1.3125 0 L -1.3125 -0.875 C -0.351562 -1.207031 0.546875 -1.847656 1.390625 -2.796875 C 2.242188 -3.753906 3.085938 -5.273438 3.921875 -7.359375 L 15.578125 -36.265625 C 16.035156 -37.429688 15.992188 -38.550781 15.453125 -39.625 L 14.640625 -41.375 L 20.75 -44.125 L 36.203125 -7.296875 C 37.078125 -5.253906 37.914062 -3.753906 38.71875 -2.796875 C 39.53125 -1.847656 40.289062 -1.207031 41 -0.875 L 41 0 L 29.65625 0 L 29.65625 -0.875 C 30.695312 -1.207031 31.082031 -1.847656 30.8125 -2.796875 C 30.539062 -3.753906 29.96875 -5.253906 29.09375 -7.296875 L 25.359375 -16.265625 L 8.71875 -16.265625 L 5.109375 -7.359375 C 4.273438 -5.273438 3.941406 -3.734375 4.109375 -2.734375 C 4.273438 -1.742188 4.878906 -1.125 5.921875 -0.875 L 5.921875 0 Z M 9.09375 -17.265625 L 24.921875 -17.265625 L 16.890625 -36.515625 Z M 9.09375 -17.265625 "/></g></g></g></g><g clip-rule="nonzero" clip-path="url(#e20018c265)"><g transform="matrix(1,0,0,1,525,391)"><g clip-path="url(#4c57baa1dd)"><g clip-rule="nonzero" clip-path="url(#334ba8ba7d)"><path style=" stroke:none;fill-rule:nonzero;fill:#6e2d4b;fill-opacity:1;" d="M 361.589844 133.042969 C 364.253906 133.820312 366.992188 134.410156 369.785156 134.808594 C 372.539062 135.199219 375.339844 135.402344 378.175781 135.402344 C 394.527344 135.402344 409.339844 128.773438 420.058594 118.054688 C 430.773438 107.335938 437.40625 92.53125 437.40625 76.171875 C 437.40625 59.816406 430.773438 45.007812 420.058594 34.289062 C 409.339844 23.570312 394.527344 16.941406 378.175781 16.941406 C 369.085938 16.941406 360.46875 18.996094 352.761719 22.660156 C 344.761719 26.464844 337.75 32.015625 332.214844 38.8125 C 315.457031 59.121094 301.804688 80.433594 288.160156 101.726562 C 260.050781 145.609375 231.972656 189.425781 177.105469 223.65625 C 172.09375 226.386719 166.855469 228.765625 161.433594 230.753906 C 148.871094 235.355469 135.296875 237.871094 121.128906 237.871094 C 88.777344 237.871094 59.492188 224.757812 38.296875 203.5625 C 17.097656 182.363281 3.988281 153.078125 3.988281 120.730469 C 3.988281 88.382812 17.101562 59.097656 38.296875 37.902344 C 58.347656 17.847656 85.632812 5.035156 115.90625 3.707031 C 113.523438 5.429688 111.972656 8.230469 111.972656 11.398438 C 111.972656 16.636719 116.21875 20.882812 121.457031 20.882812 C 126.695312 20.882812 130.941406 16.636719 130.941406 11.398438 C 130.941406 6.839844 127.722656 3.027344 123.433594 2.117188 L 123.460938 0.628906 L 121.132812 0.601562 C 87.960938 0.601562 57.925781 14.050781 36.1875 35.789062 C 14.449219 57.527344 1 87.558594 1 120.734375 C 1 153.90625 14.449219 183.941406 36.1875 205.679688 C 57.925781 227.421875 87.957031 240.867188 121.132812 240.867188 C 135.652344 240.867188 149.574219 238.289062 162.46875 233.566406 C 175.828125 228.667969 188.082031 221.464844 198.734375 212.4375 C 241.375 180.296875 266.011719 141.847656 290.675781 103.347656 C 304.285156 82.113281 317.898438 60.855469 334.527344 40.710938 L 333.375 39.765625 L 334.53125 40.707031 C 339.785156 34.25 346.441406 28.984375 354.039062 25.371094 C 361.351562 21.890625 369.539062 19.945312 378.183594 19.945312 C 393.714844 19.945312 407.773438 26.238281 417.953125 36.417969 C 428.128906 46.59375 434.425781 60.65625 434.425781 76.1875 C 434.425781 91.71875 428.128906 105.777344 417.953125 115.957031 C 407.773438 126.132812 393.714844 132.429688 378.183594 132.429688 C 375.457031 132.429688 372.792969 132.238281 370.203125 131.871094 C 367.539062 131.496094 364.945312 130.929688 362.429688 130.199219 L 361.601562 133.058594 Z M 361.589844 133.042969 "/></g></g></g></g></g></svg>